<svg id="Layer_1" data-name="Layer 1" xmlns="http://www.w3.org/2000/svg" xmlns:xlink="http://www.w3.org/1999/xlink" viewBox="0 0 100 26"><defs><style>.cls-1,.cls-2{fill:#fff;}.cls-2{font-size:16.93px;font-family:Gabriola;letter-spacing:0.05em;}.cls-3{letter-spacing:0.04em;}.cls-4{letter-spacing:-0.02em;}.cls-5{letter-spacing:0em;}.cls-6{letter-spacing:0.05em;}</style><symbol id="Favorite" data-name="Favorite" viewBox="0 0 64 60.97"><path class="cls-1" d="M46.7,0c.9,0,1.86.05,2.89.15C55.86.76,63.11,6.5,64,17.5v3.66C63.18,31.69,55.23,44.68,32,61,8.77,44.68.82,31.69,0,21.16V17.5C.88,6.5,8.13.76,14.4.15c1-.1,2-.15,2.9-.15C24.54,0,28,3.13,32,7.87,36,3.13,39.45,0,46.7,0m0,7c-4.17,0-5.9,1.28-9.34,5.37L32,18.76l-5.36-6.39C23.2,8.28,21.46,7,17.3,7c-.68,0-1.43,0-2.22.12C12.19,7.4,7.69,10.48,7,17.8v3.07c.85,9.19,9.25,19.77,25,31.47,15.74-11.7,24.15-22.28,25-31.47V17.8c-.69-7.32-5.19-10.4-8.09-10.68A22.07,22.07,0,0,0,46.7,7Z"/></symbol></defs><text class="cls-2" transform="translate(13.65 17.93)">I<tspan class="cls-3" x="4.56" y="0">N</tspan><tspan x="14.22" y="0">VI</tspan><tspan class="cls-4" x="27.36" y="0">T</tspan><tspan class="cls-5" x="34.04" y="0">A</tspan><tspan class="cls-6" x="42.37" y="0">TION</tspan></text><use width="64" height="60.97" transform="translate(1.82 9.45) scale(0.14)" xlink:href="#Favorite"/><use width="64" height="60.97" transform="translate(88.93 9.45) scale(0.14)" xlink:href="#Favorite"/></svg>